<?xml version="1.0" encoding="utf-8"?>
<!-- Generator: Adobe Illustrator 23.0.0, SVG Export Plug-In . SVG Version: 6.00 Build 0)  -->
<svg version="1.1" id="outline" xmlns="http://www.w3.org/2000/svg" xmlns:xlink="http://www.w3.org/1999/xlink" x="0px" y="0px"
	 viewBox="0 0 1296 1728" style="enable-background:new 0 0 1296 1728;" xml:space="preserve">
<style type="text/css">
	.st0{fill:none;stroke:#000000;stroke-miterlimit:10;}
	.st1{fill:none;stroke:#000000;stroke-width:3;stroke-miterlimit:10;}
	.st2{stroke:#000000;stroke-miterlimit:10;}
	.st3{fill:none;}
</style>
<path class="st0" d="M1076.2,693.8"/>
<path class="st0" d="M673.52,661.21"/>
<g id="Layer_1">
	<path class="st1" d="M687.51,538.56c12.64-29.48,31.16-55.82,47.89-83.03c4.62-7.52,9.57-14.99,12.75-23.27"/>
	<path class="st1" d="M727.82,575.18c24.4-36.14,50.56-70.33,79.86-103.48c7.33-7.25,15.7-13.47,23.02-20.72
		c1.05-1.04,3.14-1.04,4.19-2.07c15.7-14.5,35.58-24.86,53.37-36.26c21.98-7.25,42.91-16.58,65.93-18.65c14.65-1.04,29.3,0,45,2.07
		c7.33,1.04,10.46,7.25,8.37,13.47c-8.37,25.9-13.6,51.8-23.02,77.7c-9.42,29.01-20.93,56.98-31.39,85.98
		c-5.23,13.47-9.42,27.97-23.02,37.29c-8.37,4.14-14.65,9.32-21.98,14.5c4.19,7.25,6.28,16.58,7.33,24.86
		c1.05,18.65-1.05,37.29-7.33,54.91c-10.46,27.97-28.26,50.76-42.91,76.66c-4.19,8.29-10.46,16.58-12.56,25.9
		c-13.6,4.14-28.26,4.14-41.86,7.25c-14.65-4.14-26.16-14.5-35.58-26.93c-14.65-22.79-24.07-44.55-32.44-69.41
		c-1.05-3.11-3.14-5.18-4.19-8.29c-1.05-2.07,0-3.11-1.05-5.18c-1.05-3.11-3.14-5.18-4.19-8.29c-1.05-2.07,0-3.11-1.05-5.18
		c-6.28-14.5-13.6-30.04-13.88-46.17"/>
	<polygon class="st1" points="665.06,741.1 652.04,674.1 666.96,607.5 694.89,607.9 707.91,674.9 692.99,741.5 	"/>
	<rect x="664.5" y="558.5" class="st1" width="33" height="62"/>
	<path class="st1" d="M692.06,580.21l-2.73,2.73c-4.6,4.6-12.06,4.6-16.66,0l-2.73-2.73c-2.2-2.21-3.44-5.2-3.44-8.32V552.6
		c0-3.12,1.24-6.11,3.44-8.32l2.73-2.73c4.6-4.6,12.06-4.6,16.66,0l2.73,2.73c2.2,2.21,3.44,5.2,3.44,8.32v19.29
		C695.5,575.01,694.26,578,692.06,580.21z"/>
	<line class="st1" x1="983.83" y1="488.16" x2="727.11" y2="576.11"/>
	<line class="st1" x1="852.68" y1="807.35" x2="718.46" y2="645.15"/>
	<line class="st1" x1="908" y1="625.5" x2="718" y2="623.88"/>
	<line class="st1" x1="727.82" y1="575.18" x2="718.46" y2="623.4"/>
	<line class="st1" x1="718.5" y1="623" x2="718.5" y2="645"/>
	<line class="st1" x1="865.24" y1="781.45" x2="823.38" y2="771.94"/>
	<line class="st1" x1="775.24" y1="787.67" x2="823.38" y2="771.94"/>
	<line class="st1" x1="813.78" y1="466.03" x2="846.82" y2="534.07"/>
	<line class="st1" x1="953.15" y1="573.22" x2="847.82" y2="534.76"/>
	<line class="st1" x1="847.82" y1="534.76" x2="796.96" y2="623.4"/>
	<line class="st1" x1="847.82" y1="534.76" x2="908.15" y2="625.02"/>
	<line class="st1" x1="742.8" y1="718.26" x2="766.57" y2="703.29"/>
	<line class="st1" x1="908" y1="704.5" x2="767" y2="703"/>
	<line class="st1" x1="823.38" y1="771.94" x2="908.15" y2="704.79"/>
	<line class="st1" x1="823.38" y1="771.94" x2="908.15" y2="704.79"/>
	<line class="st1" x1="823.38" y1="771.94" x2="837.36" y2="704.16"/>
	<line class="st1" x1="796.96" y1="623.4" x2="766.57" y2="703.29"/>
	<line class="st1" x1="727.82" y1="575.18" x2="796.96" y2="623.4"/>
	<line class="st1" x1="1006.75" y1="400.61" x2="847.82" y2="534.76"/>
	<line class="st1" x1="888.26" y1="412.65" x2="927.28" y2="467.68"/>
	<line class="st1" x1="888.26" y1="412.65" x2="848.15" y2="534.45"/>
	<line class="st1" x1="796.96" y1="623.4" x2="837.36" y2="704.16"/>
	<line class="st1" x1="908.15" y1="625.02" x2="837.36" y2="704.16"/>
	<line class="st1" x1="775.24" y1="787.67" x2="766.57" y2="703.29"/>
	<path class="st2" d="M801.81,865.1v-0.35h15.84c4.03,0,7.21,0.32,9.55,0.95s4.37,1.63,6.11,2.99s3.11,3.1,4.13,5.21
		s1.52,4.48,1.52,7.09c0,2.52-0.53,4.99-1.58,7.42s-2.49,4.52-4.3,6.28s-3.72,2.96-5.73,3.61s-5.11,0.97-9.32,0.97h-16.22v-0.35
		h0.42c0.84,0,1.4-0.34,1.66-1.02s0.4-1.91,0.4-3.69v-25.13c0-1.87-0.16-3.01-0.48-3.4C803.5,865.29,802.83,865.1,801.81,865.1z
		 M813.58,865.47h-5.3v26.79c0,1.69,0.29,2.94,0.86,3.76s1.54,1.41,2.92,1.78s3.23,0.55,5.55,0.55c6.47,0,11.01-1.66,13.63-4.98
		s3.93-6.94,3.93-10.86c0-4.61-1.79-8.6-5.38-11.98S820.8,865.47,813.58,865.47z"/>
	<path class="st2" d="M916.54,900H910v-5.32c-3.33,3.7-7.29,5.55-11.89,5.55c-3.42,0-6.13-0.96-8.14-2.88
		c-2.01-1.92-3.01-4.58-3.01-7.97v-20.67c0-1.25-0.15-2.04-0.45-2.38s-0.99-0.5-2.09-0.5v-0.35h9.16v0.35
		c-0.97,0-1.65,0.15-2.05,0.46s-0.6,1.03-0.6,2.17v18.96c0,3.97,0.93,6.8,2.79,8.5c1.86,1.7,3.97,2.54,6.34,2.54
		c3.73,0,7.04-1.68,9.93-5.04v-23.37c0-2.05-0.18-3.26-0.54-3.64s-0.92-0.57-1.69-0.57h-0.33v-0.35h9.09v0.35
		c-1.13,0.06-1.83,0.25-2.12,0.56s-0.43,0.91-0.43,1.78v28.11c0,1.11,0.05,1.83,0.16,2.18c0.11,0.34,0.33,0.63,0.67,0.85
		c0.34,0.23,0.91,0.34,1.72,0.34V900z"/>
	<path class="st2" d="M970.28,865.59h9.89v0.35c-1.08-0.05-1.84,0.11-2.27,0.48s-0.66,1.32-0.66,2.87v13.24l20.51-15.4
		c0.41-0.28,0.61-0.54,0.61-0.77c0-0.28-0.46-0.42-1.38-0.42v-0.35h7.45v0.35c-1.88,0.05-3.71,0.73-5.49,2.06l-17.87,13.33
		l17.83,13.54c0.02,0.02,0.04,0.03,0.07,0.05c0.03,0.02,0.05,0.04,0.07,0.07c0.03,0.02,0.06,0.02,0.09,0.02
		c2.34,1.75,4.16,2.98,5.45,3.69s2.5,1.06,3.62,1.06v0.35h-11.74v-0.35c1.05,0,1.57-0.12,1.57-0.35c0-0.2-0.43-0.63-1.29-1.29
		l-19.5-14.81v12.8c0,1.5,0.11,2.42,0.32,2.76c0.21,0.34,0.49,0.59,0.84,0.74s0.93,0.2,1.72,0.15v0.35h-9.84v-0.35
		c1.31,0.06,2.14-0.14,2.47-0.6c0.34-0.46,0.5-1.43,0.5-2.92v-26.77c0-1.53-0.17-2.52-0.5-2.97s-1.16-0.64-2.47-0.56V865.59z"/>
	<path class="st2" d="M1052.6,865.99v-0.4h21.7v4.76h-0.35c-0.47-1.77-0.86-2.8-1.18-3.12s-1.11-0.47-2.36-0.47h-11.39v15.49h10.57
		c1.05,0,1.71-0.1,1.99-0.29s0.43-0.48,0.45-0.86h0.35v3.26h-0.35c-0.08-0.45-0.26-0.76-0.55-0.91s-0.82-0.23-1.61-0.23h-10.85
		v10.66c0,1.61,0.15,2.77,0.44,3.48c0.3,0.71,0.77,1.16,1.42,1.34s1.63,0.27,2.94,0.27h6.09c1.93,0,3.17-0.07,3.71-0.2
		c0.54-0.13,1-0.4,1.37-0.79c0.37-0.4,0.66-1.26,0.87-2.6h0.35v4.73h-23.6v-0.35c0.8-0.05,1.4-0.2,1.82-0.46
		c0.41-0.26,0.62-0.92,0.62-2v-27.87c0-1.26-0.11-2.15-0.33-2.67C1054.49,866.25,1053.79,865.99,1052.6,865.99z"/>
	<path class="st2" d="M348.72,866.29v-0.33h9.8c2.48,0,4.28,0.05,5.39,0.15c1.11,0.1,2.25,0.45,3.41,1.03
		c1.16,0.58,2.04,1.37,2.64,2.36s0.89,2.21,0.89,3.65c0,1.65-0.53,3.22-1.58,4.71s-2.54,2.75-4.47,3.78l2.44,3.52
		c0.53,0.88,1.94,2.81,4.23,5.79c2.29,2.98,4.06,4.8,5.31,5.45s2.46,0.98,3.63,0.98c1.16,0,2.48-0.42,3.98-1.26l0.14,0.44
		c-1.87,1.44-4.31,2.16-7.31,2.16c-2,0-3.71-0.56-5.15-1.67c-1.44-1.11-3.94-4.16-7.5-9.15c-0.03-0.03-0.05-0.06-0.05-0.09
		l-3.47-5.02l-3.08,0.09h-2.79v12.41c0,1,0.14,1.71,0.42,2.15c0.28,0.43,0.95,0.65,2.02,0.65v0.33h-8.91v-0.33
		c1.11-0.04,1.8-0.26,2.07-0.66c0.27-0.4,0.41-1.2,0.41-2.42v-25.78c0-0.84-0.12-1.53-0.35-2.08
		C350.62,866.59,349.91,866.3,348.72,866.29z M355.19,866.82v15.23h3.62c2.85,0,4.96-0.63,6.34-1.9c1.38-1.26,2.07-2.92,2.07-4.98
		c0-2-0.68-3.89-2.03-5.67c-1.35-1.78-3.74-2.68-7.15-2.68H355.19z"/>
	<path class="st2" d="M274.23,884.82H264.1l-5.23,12.25c-0.36,0.88-0.54,1.42-0.54,1.63c0,0.48,0.38,0.73,1.15,0.73v0.33h-5.13
		v-0.33c0.69,0,1.26-0.16,1.73-0.47c0.47-0.32,0.98-1.14,1.55-2.46l12.51-29.68h0.62l12.31,28.66c0,0.15,0.32,0.84,0.95,2.08
		c0.63,1.24,1.59,1.86,2.89,1.86v0.33h-8.06v-0.33c0.73,0,1.1-0.27,1.1-0.82c0-0.37-0.18-0.95-0.54-1.76
		c-0.06-0.06-0.12-0.15-0.16-0.29c-0.03-0.15-0.05-0.22-0.07-0.22L274.23,884.82z M264.43,883.92h9.34l-4.66-11.06L264.43,883.92z"
		/>
	<path class="st2" d="M481.97,863.33l-1.64,3.92h-0.35c0.06-0.24,0.09-0.55,0.09-0.95c0-0.34-0.13-0.55-0.39-0.65
		c-0.26-0.1-0.67-0.14-1.23-0.14h-9v27.77c0,1.14,0.1,1.93,0.29,2.34s0.46,0.68,0.8,0.79s0.88,0.17,1.63,0.17v0.33h-9.35v-0.33
		c1.17-0.07,1.91-0.29,2.2-0.64c0.3-0.35,0.45-1.09,0.45-2.2v-28.23h-8.63c-0.87,0-1.44,0.05-1.71,0.14c-0.26,0.1-0.4,0.33-0.4,0.72
		c0,0.19,0.06,0.48,0.19,0.88h-0.35l-1.64-3.92h0.35c0.28,0.53,0.56,0.85,0.83,0.96c0.27,0.11,0.86,0.17,1.77,0.17h22.91
		c0.9,0,1.56-0.06,1.95-0.17c0.4-0.11,0.69-0.43,0.88-0.96H481.97z"/>
	<path class="st2" d="M571.1,863.89l1.64,4.05l-0.28,0.04c0-0.01-0.43-0.45-1.3-1.3c-0.87-0.85-1.86-1.51-2.98-1.97
		s-2.38-0.69-3.79-0.69c-2.36,0-4.23,0.64-5.61,1.91s-2.07,2.8-2.07,4.59c0,1.19,0.32,2.23,0.97,3.12s2,1.72,4.06,2.49
		c3.54,1.12,5.97,1.97,7.28,2.53c1.31,0.56,2.56,1.52,3.78,2.87c1.21,1.35,1.82,3.08,1.82,5.19c0,0.88-0.11,1.72-0.33,2.52
		c-0.22,0.8-0.57,1.57-1.05,2.31c-0.48,0.74-1.07,1.42-1.75,2.03c-0.68,0.61-1.37,1.07-2.07,1.39c-0.7,0.32-1.81,0.55-3.33,0.72
		c-1.52,0.16-2.52,0.24-3,0.24h-9.21v-9.43h0.35c0.03,3.13,0.81,5.31,2.34,6.54s3.91,1.85,7.15,1.85c2.94,0,5.17-0.65,6.69-1.96
		c1.52-1.31,2.29-2.88,2.29-4.72c0-1.12-0.27-2.07-0.8-2.85s-1.27-1.48-2.23-2.07c-0.95-0.59-2.76-1.32-5.41-2.18
		c-2.64-0.87-4.49-1.63-5.57-2.29c-1.07-0.65-1.97-1.64-2.69-2.95s-1.08-2.65-1.08-4.02c0-2.51,0.92-4.62,2.75-6.32
		c1.84-1.7,4.25-2.55,7.23-2.55c1.16,0,2.41,0.12,3.75,0.37c1.34,0.25,2.09,0.41,2.25,0.48
		C570.97,863.87,571.03,863.89,571.1,863.89z"/>
	<rect x="254.35" y="896.81" class="st3" width="259.2" height="4.01"/>
	<path class="st1" d="M609.58,431.14c0.41,9.13,6.5,16.71,11.68,23.77c19.54,26.65,42.88,51.71,53.49,83.66 M378.76,499.45
		l256.57,82.59 M452.63,620.64L628.2,613 M562.55,737.45L465.96,728 M562.55,737.45L595.96,767 M465.96,728l160.82-115.31
		 M526.56,684.66l-73.24-63.71 M526.83,684.35l35.72,53.1 M526.5,684l0.01-67 M553.56,555.02L502.4,433.6 M554.41,555.99L598.96,529
		 M502.4,433.6l-121.93,66.96 M503.39,434l-34.78,94.88 M430.96,398l-51.01,101.59 M509.05,805.57l133.09-164.5l0.39,0.47
		l-15.76-28.85l9.85-30.65C632.3,579,630.3,575,628.3,572c-9-15-17-30-29-43c-30-34-60-64-94-95c-20-17-43-29-70-34c-1,0-3-2-4-2
		c-25-4-51-13-75-4c-4,2-7,7-6,11c4,37,20,69,33,103c3,10,4,20,7,30c2,4,3,8,5,12c8,15,13,31,19,46c7,15,22,29,39.63,24.64
		c-0.91,1.5-1.59,0.39,0,0C439.3,653,449.3,691,464.3,722c1,2,1,4,2,6c7,12,15,22,21,33c7,13,13,26,19,39c1,2,2,5,5,6c5,1,10-2,14-1
		c7,3,13,4,20,5c5,0,11-2,16-4c17-7,26-23,35-39c2-3,6-5,8-9c5-13,10-25,14-38c2-3,3-6,4-9c8-23,14-45,20-69c0,0,1-1,1.67-0.74
		 M414.3,596l51.07-68.67 M465.37,527.33l61.47,90.08 M526.84,617.41l108.49-35.37 M635.32,582.04l-8.55,30.65"/>
</g>
</svg>
